<?xml version="1.0" standalone="no"?>
<!DOCTYPE svg PUBLIC "-//W3C//DTD SVG 20010904//EN"
 "http://www.w3.org/TR/2001/REC-SVG-20010904/DTD/svg10.dtd">
<svg version="1.0" xmlns="http://www.w3.org/2000/svg"
 width="403.000000pt" height="403.000000pt" viewBox="0 0 403.000000 403.000000"
 preserveAspectRatio="xMidYMid meet">
<metadata>
Created by potrace 1.14, written by Peter Selinger 2001-2017
</metadata>
<g transform="translate(0.000000,403.000000) scale(0.100000,-0.100000)"
fill="#000000" stroke="none">
<path d="M337 4021 c-7 -13 0 -2240 7 -2311 61 -648 467 -1230 1061 -1521 101
-49 263 -111 324 -124 9 -2 45 -10 81 -19 36 -8 83 -18 105 -21 22 -4 51 -8
65 -11 14 -3 80 -7 148 -11 l122 -6 0 177 0 176 -42 1 c-284 4 -588 98 -818
252 -376 252 -609 614 -686 1067 -4 25 -9 468 -11 984 -3 874 -2 938 13 925 9
-7 372 -369 806 -803 492 -492 797 -805 810 -830 15 -30 19 -53 16 -98 -11
-151 -174 -239 -302 -164 -54 32 -116 103 -134 154 -23 68 0 155 59 217 l29
31 -125 124 -124 124 -27 -24 c-47 -44 -112 -144 -140 -215 -25 -63 -28 -82
-28 -195 0 -111 3 -132 26 -191 33 -84 62 -130 128 -202 80 -87 193 -161 280
-183 8 -2 31 -7 50 -12 57 -14 199 -7 260 13 102 33 173 76 240 144 110 111
163 240 162 396 -1 87 -3 103 -28 179 -35 104 -64 144 -219 300 -115 114 -117
117 -99 135 10 10 53 55 94 101 41 45 84 92 95 104 23 26 171 188 200 220 48
54 195 214 246 270 31 34 68 75 83 91 15 17 42 46 59 65 18 19 72 79 121 133
49 53 91 95 94 92 8 -7 5 -1667 -2 -1721 -4 -27 -10 -65 -12 -84 -3 -19 -19
-75 -35 -125 -139 -419 -538 -707 -976 -705 -86 0 -103 2 -173 15 -293 54
-532 212 -692 459 -81 125 -140 288 -156 431 -4 39 -7 220 -7 403 l0 332 -22
1 c-13 0 -68 0 -123 0 -55 0 -124 0 -154 0 l-54 -1 1 -358 c0 -374 6 -456 46
-610 108 -417 424 -769 834 -931 381 -151 830 -118 1182 86 350 202 585 526
674 928 19 87 20 131 20 1221 l1 1130 -205 1 -205 0 -41 -46 c-23 -25 -67 -73
-98 -107 -31 -33 -72 -78 -91 -100 -20 -21 -89 -97 -154 -169 -66 -71 -142
-155 -169 -185 -27 -30 -72 -80 -101 -110 -40 -44 -154 -168 -241 -264 -5 -6
-77 -84 -158 -174 l-149 -163 -650 651 c-358 358 -658 654 -667 659 -18 9
-420 12 -424 2z"/>
</g>
</svg>
