<?xml version="1.0" standalone="no"?>
<!DOCTYPE svg PUBLIC "-//W3C//DTD SVG 20010904//EN"
 "http://www.w3.org/TR/2001/REC-SVG-20010904/DTD/svg10.dtd">
<svg version="1.0" xmlns="http://www.w3.org/2000/svg"
 width="1630.000000pt" height="1630.000000pt" viewBox="0 0 1630.000000 1630.000000"
 preserveAspectRatio="xMidYMid meet">
<metadata>
Created by potrace 1.14, written by Peter Selinger 2001-2017
</metadata>
<g transform="translate(0.000000,1630.000000) scale(0.100000,-0.100000)"
fill="#000000" stroke="none">
<path d="M345 16290 c-2 -4 -4 -3668 -4 -8143 l0 -8137 27 -1 c213 -5 15585 0
15590 6 8 8 10 15277 2 15891 l-5 391 -7803 0 c-4292 0 -7805 -3 -7807 -7z
m5825 -1617 c0 -7 -129 -339 -154 -398 -7 -16 -28 -68 -46 -115 -17 -47 -49
-128 -70 -180 -21 -52 -52 -131 -70 -175 -17 -44 -35 -89 -40 -100 -5 -11 -70
-177 -146 -370 -174 -447 -362 -924 -373 -950 -11 -25 -26 -65 -96 -245 -31
-80 -61 -154 -66 -165 -8 -19 -104 -262 -275 -700 -41 -104 -78 -199 -83 -210
-5 -11 -16 -40 -26 -65 -9 -25 -23 -58 -30 -75 -7 -16 -32 -79 -55 -140 -23
-60 -46 -119 -51 -130 -8 -20 -149 -377 -295 -750 -41 -104 -79 -199 -84 -210
-5 -11 -46 -114 -90 -230 -45 -115 -85 -219 -90 -230 -5 -11 -23 -56 -40 -100
-17 -44 -35 -89 -40 -100 -5 -11 -30 -74 -56 -140 -25 -66 -89 -228 -141 -360
-52 -132 -110 -280 -130 -329 -128 -329 -245 -624 -253 -641 -5 -11 -26 -63
-46 -115 -20 -52 -78 -201 -128 -330 -51 -129 -101 -256 -111 -282 l-17 -46
57 -99 c176 -299 444 -664 679 -923 48 -53 365 -369 422 -421 136 -124 172
-150 179 -132 3 10 45 119 91 243 47 124 91 239 98 255 16 37 11 23 251 655
108 283 230 605 272 715 41 110 85 227 98 260 22 56 105 277 260 685 36 96 89
236 116 310 52 139 59 157 77 200 6 14 22 57 36 95 14 39 31 84 37 100 7 17
13 35 15 40 3 11 32 85 179 470 53 138 97 257 100 265 2 8 56 152 120 320 64
168 122 321 129 340 33 90 280 739 293 770 8 19 16 42 18 50 3 14 188 501 219
580 8 19 38 98 66 175 29 77 56 149 61 160 10 23 263 693 415 1100 58 154 109
289 114 300 5 11 66 171 136 355 69 184 136 362 149 395 33 85 174 459 200
530 13 33 26 68 30 78 6 15 22 17 129 17 l123 0 10 -32 c13 -39 340 -904 353
-933 5 -11 71 -182 146 -380 74 -198 146 -387 159 -420 13 -33 73 -193 135
-355 61 -162 117 -308 124 -325 8 -16 17 -41 21 -55 4 -14 13 -38 20 -55 7
-16 50 -129 95 -250 45 -121 88 -233 95 -250 18 -41 145 -376 150 -395 5 -19
323 -858 336 -885 5 -11 33 -85 63 -165 30 -80 102 -271 161 -425 161 -422
457 -1203 547 -1440 43 -115 83 -219 88 -230 5 -11 54 -141 110 -290 56 -148
112 -297 125 -330 13 -33 49 -127 80 -210 31 -82 69 -184 85 -225 46 -119 226
-590 365 -955 169 -446 219 -575 250 -655 19 -47 45 -114 58 -150 14 -36 30
-78 36 -93 l11 -29 62 54 c95 81 126 108 197 173 98 90 316 310 401 405 41 46
80 88 86 94 22 23 213 265 266 336 114 155 295 436 348 540 l20 40 -36 87
c-19 49 -37 95 -39 103 -4 15 -278 709 -294 745 -5 11 -66 166 -136 345 -70
179 -133 339 -141 357 -8 17 -14 34 -14 38 0 4 -7 21 -14 38 -15 32 -298 748
-341 862 -33 86 -254 646 -265 670 -5 11 -41 103 -80 205 -39 102 -76 194 -80
205 -5 11 -37 90 -70 175 -33 85 -65 164 -69 175 -5 11 -45 112 -89 225 -45
113 -129 327 -187 475 -59 149 -134 340 -167 425 -33 85 -66 169 -73 185 -13
30 -73 181 -140 355 -20 52 -42 109 -50 125 -7 17 -36 91 -65 165 -29 74 -58
149 -65 165 -7 17 -36 91 -65 165 -28 74 -56 144 -61 155 -4 11 -27 67 -49
125 -22 58 -45 114 -50 125 -4 11 -53 135 -108 275 -115 292 -236 599 -294
745 -22 55 -46 117 -53 138 l-14 37 2043 0 2043 0 -2 -2712 c-1 -1492 -5
-2731 -8 -2753 -3 -22 -8 -80 -12 -130 -3 -49 -8 -106 -10 -125 -2 -19 -6 -64
-10 -100 -3 -36 -8 -76 -10 -90 -2 -14 -6 -45 -10 -70 -3 -25 -8 -56 -10 -70
-2 -14 -7 -45 -10 -70 -25 -185 -91 -486 -156 -713 -338 -1179 -983 -2133
-2004 -2966 -120 -97 -398 -291 -562 -392 -214 -131 -579 -323 -673 -354 -3
-1 -27 -12 -55 -24 -312 -142 -884 -318 -1225 -376 -154 -27 -262 -45 -300
-50 -25 -3 -56 -8 -70 -10 -39 -6 -132 -17 -165 -20 -16 -1 -66 -5 -110 -9
-44 -4 -93 -9 -110 -11 -156 -23 -889 -23 -1090 0 -39 4 -143 14 -215 20 -39
3 -131 14 -170 20 -14 2 -45 7 -70 10 -25 3 -94 14 -155 25 -60 10 -123 21
-140 24 -327 57 -868 217 -1150 342 -16 7 -59 25 -95 39 -178 74 -588 288
-717 375 -24 17 -46 30 -48 30 -4 0 -175 114 -265 177 -166 116 -426 325 -583
471 -108 100 -367 363 -437 442 -30 35 -60 68 -65 74 -6 6 -30 36 -55 66 -25
30 -53 64 -63 75 -34 36 -271 358 -329 445 -73 111 -176 279 -218 355 -18 33
-45 83 -60 110 -137 248 -306 643 -390 910 -23 75 -58 190 -65 215 -2 8 -12
42 -21 75 -19 72 -18 68 -45 180 -22 96 -27 117 -33 153 -3 12 -7 30 -10 40
-3 9 -7 33 -10 52 -3 19 -8 44 -10 56 -2 11 -13 77 -24 145 -20 118 -25 155
-37 267 -3 26 -8 63 -10 82 -3 19 -7 67 -10 105 -3 39 -8 93 -10 120 -14 172
-17 603 -16 2930 0 1425 0 2596 1 2603 0 9 415 12 2040 12 1122 0 2040 -3
2040 -7z m-4020 -10343 c3 -3 36 -41 75 -85 250 -286 510 -546 805 -806 108
-95 356 -293 505 -404 131 -98 435 -300 549 -365 17 -9 69 -40 116 -67 199
-115 453 -244 650 -331 63 -27 138 -60 165 -72 28 -12 57 -23 65 -25 8 -2 55
-20 104 -40 175 -71 448 -159 796 -255 46 -13 320 -76 390 -89 30 -6 66 -14
80 -16 14 -3 82 -15 153 -27 70 -12 127 -25 127 -28 0 -4 -4633 -5 -4672 -1
-5 1 -8 616 -8 1367 l0 1366 47 -59 c26 -32 50 -60 53 -63z m12107 -1250 c0
-748 -2 -1360 -6 -1361 -37 -4 -4696 -2 -4688 2 7 4 32 9 57 13 25 4 61 9 80
12 163 24 664 138 828 188 493 151 777 261 1162 450 366 178 811 447 1075 648
6 5 73 56 149 114 409 311 858 737 1187 1124 35 41 69 81 76 88 7 8 25 29 39
48 15 19 30 34 34 34 4 0 7 -612 7 -1360z"/>
</g>
</svg>
